<svg xmlns="http://www.w3.org/2000/svg" viewBox="0 0 1200 700"><defs><marker id="a" markerWidth="10" markerHeight="10" refX="9" refY="3" orient="auto"><path d="M0,0 L0,6 L9,3 z" fill="#64748b"/></marker></defs><rect width="1200" height="700" fill="#fff"/><text x="50" y="55" font-family="Arial" font-size="28" font-weight="700" fill="#172033">Marketing and Capture Data Flow</text><g font-family="Arial" font-size="15" text-anchor="middle"><rect x="40" y="130" width="210" height="80" rx="8" fill="#d9eaf7" stroke="#2f75b5"/><text x="145" y="165">Customers and</text><text x="145" y="187">Procurement Sources</text><rect x="320" y="130" width="210" height="80" rx="18" fill="#fff2cc" stroke="#bf9000"/><text x="425" y="165">Marketing and</text><text x="425" y="187">Capture Intake</text><rect x="600" y="130" width="210" height="80" rx="18" fill="#fff2cc" stroke="#bf9000"/><text x="705" y="165">Security, Quality,</text><text x="705" y="187">and Export Review</text><rect x="900" y="130" width="230" height="80" rx="8" fill="#e2f0d9" stroke="#548235"/><text x="1015" y="165">Customer and</text><text x="1015" y="187">Opportunity Store</text><rect x="600" y="330" width="210" height="80" rx="18" fill="#fff2cc" stroke="#bf9000"/><text x="705" y="365">Segmentation and</text><text x="705" y="387">Bid Scoring</text><rect x="900" y="330" width="230" height="80" rx="18" fill="#fff2cc" stroke="#bf9000"/><text x="1015" y="365">Campaign, Partner,</text><text x="1015" y="387">and Proposal Activation</text><rect x="900" y="530" width="230" height="80" rx="8" fill="#e2f0d9" stroke="#548235"/><text x="1015" y="565">Pipeline and</text><text x="1015" y="587">Performance Mart</text><rect x="600" y="530" width="210" height="80" rx="18" fill="#fff2cc" stroke="#bf9000"/><text x="705" y="565">Power BI Executive</text><text x="705" y="587">Analytics</text><rect x="280" y="530" width="250" height="80" rx="8" fill="#d9eaf7" stroke="#2f75b5"/><text x="405" y="565">Executive Leadership</text><text x="405" y="587">and Program Teams</text></g><g stroke="#64748b" stroke-width="3" fill="none" marker-end="url(#a)"><line x1="250" y1="170" x2="320" y2="170"/><line x1="530" y1="170" x2="600" y2="170"/><line x1="810" y1="170" x2="900" y2="170"/><line x1="1015" y1="210" x2="760" y2="330"/><line x1="810" y1="370" x2="900" y2="370"/><line x1="1015" y1="410" x2="1015" y2="530"/><line x1="900" y1="570" x2="810" y2="570"/><line x1="600" y1="570" x2="530" y2="570"/><path d="M405 530 C405 440 590 440 650 410"/></g></svg>