<svg xmlns="http://www.w3.org/2000/svg" width="1100" height="680"><rect width="100%" height="100%" fill="#fff"/><rect width="100%" height="88" fill="#18212b"/><text x="48" y="46" font-family="Arial" font-size="28" font-weight="700" fill="#fff">Deming's 14 Points: Rocket Lab Implementation Map</text><text x="48" y="70" font-family="Arial" font-size="14" fill="#cbd5e1">Company-specific quality-management actions</text><g font-family="Arial" font-size="14" fill="#18212b"><g fill="#f8fafc" stroke="#dbe3ea"><rect x="70" y="120" width="465" height="48" rx="10"/><rect x="585" y="120" width="465" height="48" rx="10"/><rect x="70" y="187" width="465" height="48" rx="10"/><rect x="585" y="187" width="465" height="48" rx="10"/><rect x="70" y="254" width="465" height="48" rx="10"/><rect x="585" y="254" width="465" height="48" rx="10"/><rect x="70" y="321" width="465" height="48" rx="10"/><rect x="585" y="321" width="465" height="48" rx="10"/><rect x="70" y="388" width="465" height="48" rx="10"/><rect x="585" y="388" width="465" height="48" rx="10"/><rect x="70" y="455" width="465" height="48" rx="10"/><rect x="585" y="455" width="465" height="48" rx="10"/><rect x="70" y="522" width="465" height="48" rx="10"/><rect x="585" y="522" width="465" height="48" rx="10"/></g><g fill="#c45f3c"><circle cx="95" cy="144" r="15"/><circle cx="610" cy="144" r="15"/><circle cx="95" cy="211" r="15"/><circle cx="610" cy="211" r="15"/><circle cx="95" cy="278" r="15"/><circle cx="610" cy="278" r="15"/><circle cx="95" cy="345" r="15"/><circle cx="610" cy="345" r="15"/><circle cx="95" cy="412" r="15"/><circle cx="610" cy="412" r="15"/><circle cx="95" cy="479" r="15"/><circle cx="610" cy="479" r="15"/><circle cx="95" cy="546" r="15"/><circle cx="610" cy="546" r="15"/></g><g fill="#fff" text-anchor="middle" font-size="12"><text x="95" y="149">1</text><text x="610" y="149">2</text><text x="95" y="216">3</text><text x="610" y="216">4</text><text x="95" y="283">5</text><text x="610" y="283">6</text><text x="95" y="350">7</text><text x="610" y="350">8</text><text x="95" y="417">9</text><text x="610" y="417">10</text><text x="95" y="484">11</text><text x="610" y="484">12</text><text x="95" y="551">13</text><text x="610" y="551">14</text></g><text x="122" y="149">Constancy of purpose</text><text x="637" y="149">Adopt quality philosophy</text><text x="122" y="216">Stop inspection dependence</text><text x="637" y="216">Improve supplier relationships</text><text x="122" y="283">Continuous process improvement</text><text x="637" y="283">Institute training</text><text x="122" y="350">Institute leadership</text><text x="637" y="350">Drive out fear</text><text x="122" y="417">Break down silos</text><text x="637" y="417">Eliminate slogans</text><text x="122" y="484">Remove numeric-only quotas</text><text x="637" y="484">Support workmanship pride</text><text x="122" y="551">Education and self-improvement</text><text x="637" y="551">Executive transformation</text></g></svg>