<svg xmlns="http://www.w3.org/2000/svg" viewBox="0 0 1200 650"><rect width="1200" height="650" fill="#fff"/><text x="60" y="55" font-family="Arial" font-size="28" font-weight="700" fill="#172033">RKLB Revenue, Demand, and Capacity</text><text x="60" y="85" font-family="Arial" font-size="15" fill="#5e6a7d">Revenue actual through 2025; later values and indices modeled</text><line x1="90" y1="540" x2="1120" y2="540" stroke="#cbd5e1"/><line x1="90" y1="120" x2="90" y2="540" stroke="#cbd5e1"/><g fill="#2f75b5"><rect x="130" y="456.836" width="72" height="83.164" rx="4"/><rect x="295" y="391.692" width="72" height="148.308" rx="4"/><rect x="460" y="335.388" width="72" height="204.612" rx="4"/><rect x="625" y="281.6" width="72" height="258.4" rx="4"/><rect x="790" y="217" width="72" height="323" rx="4"/><rect x="955" y="138.8" width="72" height="401.2" rx="4"/></g><polyline fill="none" stroke="#d67a58" stroke-width="6" points="166,433 331,371 496,309 661,247 826,185 991,120"/><polyline fill="none" stroke="#17365d" stroke-width="6" stroke-dasharray="12 8" points="166,425 331,357 496,326 661,278 826,219 991,162"/><g font-family="Arial" font-size="16" fill="#334155"><text x="140" y="570">2023</text><text x="305" y="570">2024</text><text x="470" y="570">2025</text><text x="635" y="570">2026</text><text x="800" y="570">2027</text><text x="965" y="570">2028</text></g><g font-family="Arial" font-size="14"><rect x="750" y="60" width="16" height="16" fill="#2f75b5"/><text x="774" y="74">Revenue ($M)</text><line x1="900" y1="69" x2="940" y2="69" stroke="#d67a58" stroke-width="5"/><text x="948" y="74">Demand</text><line x1="1020" y1="69" x2="1060" y2="69" stroke="#17365d" stroke-width="5" stroke-dasharray="8 6"/><text x="1068" y="74">Capacity</text></g></svg>